{
  "asset": {
    "version": "2.0",
    "generator": "Granit Tutorial 09"
  },
  "buffers": [
    {
      "uri": "tutorial_cube.bin",
      "byteLength": 1224
    }
  ],
  "bufferViews": [
    {
      "buffer": 0,
      "byteOffset": 0,
      "byteLength": 1152,
      "byteStride": 48,
      "target": 34962
    },
    {
      "buffer": 0,
      "byteOffset": 1152,
      "byteLength": 72,
      "target": 34963
    }
  ],
  "accessors": [
    {
      "bufferView": 0,
      "byteOffset": 0,
      "componentType": 5126,
      "count": 24,
      "type": "VEC3",
      "min": [
        -1,
        -1,
        -1
      ],
      "max": [
        1,
        1,
        1
      ]
    },
    {
      "bufferView": 0,
      "byteOffset": 12,
      "componentType": 5126,
      "count": 24,
      "type": "VEC3"
    },
    {
      "bufferView": 0,
      "byteOffset": 24,
      "componentType": 5126,
      "count": 24,
      "type": "VEC4"
    },
    {
      "bufferView": 0,
      "byteOffset": 40,
      "componentType": 5126,
      "count": 24,
      "type": "VEC2"
    },
    {
      "bufferView": 1,
      "byteOffset": 0,
      "componentType": 5123,
      "count": 36,
      "type": "SCALAR"
    }
  ],
  "materials": [
    {
      "name": "Tutorial orange",
      "pbrMetallicRoughness": {
        "baseColorFactor": [
          0.82,
          0.24,
          0.08,
          1.0
        ],
        "metallicFactor": 0.25,
        "roughnessFactor": 0.38
      }
    }
  ],
  "meshes": [
    {
      "name": "Tutorial cube",
      "primitives": [
        {
          "attributes": {
            "POSITION": 0,
            "NORMAL": 1,
            "TANGENT": 2,
            "TEXCOORD_0": 3
          },
          "indices": 4,
          "material": 0
        }
      ]
    }
  ],
  "nodes": [
    {
      "name": "Tutorial cube",
      "mesh": 0
    }
  ],
  "scenes": [
    {
      "name": "Tutorial scene",
      "nodes": [
        0
      ]
    }
  ],
  "scene": 0
}
