{
  "asset": {"version": "2.0"},
  "buffers": [
    {
      "uri": "data:application/octet-stream;base64,",
      "byteLength": 78
    },
    {"uri": "model_viewer_fixture.bin", "byteLength": 23}
  ],
  "bufferViews": [
    {"buffer": 0, "byteOffset": 0, "byteLength": 36},
    {"buffer": 0, "byteOffset": 36, "byteLength": 36},
    {"buffer": 0, "byteOffset": 72, "byteLength": 6}
  ],
  "accessors": [
    {
      "bufferView": 0,
      "componentType": 5126,
      "count": 3,
      "type": "VEC3",
      "min": [-1.0, -1.0, 0.0],
      "max": [1.0, 1.0, 0.0]
    },
    {"bufferView": 1, "componentType": 5126, "count": 3, "type": "VEC3"},
    {"bufferView": 2, "componentType": 5123, "count": 3, "type": "SCALAR"}
  ],
  "materials": [{"name": "fixture-material"}],
  "meshes": [
    {
      "primitives": [
        {
          "attributes": {"POSITION": 0, "NORMAL": 1},
          "indices": 2,
          "material": 0
        }
      ]
    }
  ],
  "nodes": [{"mesh": 0}],
  "scenes": [{"nodes": [0]}],
  "scene": 0
}
